<?xml version="1.0" encoding="utf-8"?>
<!-- Generator: Adobe Illustrator 26.0.3, SVG Export Plug-In . SVG Version: 6.00 Build 0)  -->
<svg version="1.0" id="Layer_1" xmlns="http://www.w3.org/2000/svg" xmlns:xlink="http://www.w3.org/1999/xlink" x="0px" y="0px"
	 viewBox="0 0 190.1 143.1" style="enable-background:new 0 0 190.1 143.1;" xml:space="preserve">
<style type="text/css">
	.st0{fill:#2A2A2A;}
	.st1{fill:#649A3D;}
</style>
<g>
	<path class="st0" d="M167.4,61.2h-0.8v-0.5h1.9v0.4h-0.7v2.3h-0.4V61.2z M169,60.7h0.7l0.6,1.9l0.6-1.9h0.7v2.7h-0.4v-2.1l-0.7,2.2
		h-0.4l-0.7-2.2v2.2H169L169,60.7z M154.1,60.7c-1.1,0-2.1,0.8-2.2,1.9c-1.5-1.5-3.6-2.3-6.1-2.3C139.9,60.3,135,65,135,71
		c0,0.1,0,0.1,0,0.2v0.4c2.4,0.9,3.9,3.2,3.9,5.7c0,0.7-0.1,1.4-0.3,2c2,1.7,4.6,2.7,7.3,2.7c2.3-0.1,4.4-0.9,6.1-2.5
		c0.1,1.2,1,2.1,2.2,2c1.4,0,2.3-0.9,2.3-2.3V62.9c0.1-1.2-0.8-2.2-2-2.2C154.2,60.6,154.1,60.6,154.1,60.7 M145.7,77.1
		c-3.3,0-6.1-2.7-6.1-6c0-3.3,2.7-6.1,6-6.1s6.1,2.7,6.1,6l0,0C151.8,74.4,149.1,77.1,145.7,77.1 M114.4,60.7
		c-1.1,0-2.1,0.8-2.2,1.9c-1.5-1.5-3.6-2.3-6.1-2.3c-5.9,0-10.8,4.7-10.8,10.7c0,0.1,0,0.1,0,0.2c0,6.2,4.7,10.8,10.8,10.8
		c2.3-0.1,4.4-0.9,6.1-2.5c0.1,1.2,1,2.1,2.2,2c1.4,0,2.3-0.9,2.3-2.3V62.9C116.6,61.5,115.7,60.7,114.4,60.7 M105.9,77.1
		c-3.3,0-6.1-2.7-6.1-6c0-3.3,2.7-6.1,6-6.1s6.1,2.7,6.1,6l0,0C111.9,74.4,109.2,77.1,105.9,77.1 M37.7,52.6
		c-1.2-0.1-2.2,0.8-2.3,1.9c0,0.1,0,0.2,0,0.3v7.8c-1.4-1.5-3.5-2.4-6-2.4c-5.8,0-10.8,5.1-10.8,10.9c0,5.8,5.1,10.8,10.8,10.8
		c2.3-0.1,4.6-1,6.2-2.6c0.2,1.4,1.1,2.2,2.4,2.2c1,0,1.9-0.8,1.9-1.9v-0.1V54.8c0.2-1.1-0.8-2.1-1.9-2.2
		C37.9,52.6,37.8,52.6,37.7,52.6 M29.4,77.1c-3.3,0-6.1-2.7-6.1-6c0-3.3,2.7-6.1,6-6.1s6.1,2.7,6.1,6l0,0
		C35.4,74.4,32.7,77.1,29.4,77.1 M70.6,60.7c-1.4,0-2.2,0.7-2.4,2.2c-1.7-1.6-3.9-2.6-6.2-2.7c-5.8,0-10.9,5.1-10.9,10.8
		c0,5.7,5.1,10.9,10.8,10.9c2.6,0,4.7-0.8,6-2.3c-0.1,4.4-2.2,6.5-6.4,6.5c-1.2-0.1-2.2,0.8-2.3,2c0,0.1,0,0.2,0,0.3
		c0,1.4,0.9,2.3,2.4,2.3c8,0,10.8-5.8,10.8-10.8V62.6C72.4,61.6,71.6,60.7,70.6,60.7C70.7,60.7,70.6,60.7,70.6,60.7 M61.9,77.1
		c-3.3,0-6.1-2.7-6.1-6c0-3.3,2.7-6.1,6-6.1s6.1,2.7,6.1,6l0,0C67.9,74.4,65.2,77.1,61.9,77.1 M162.5,60.5c-1.2,0-2.2,0.9-2.2,2.1
		v0.1l-0.1,16.5c-0.1,1.2,0.8,2.2,2,2.3c0.1,0,0.1,0,0.2,0c1.4,0,2.3-0.9,2.3-2.3l0.1-16.5c0.1-1.2-0.8-2.2-2-2.2
		C162.7,60.5,162.6,60.5,162.5,60.5 M45.8,60.4c-1.2,0-2.2,0.9-2.2,2.1v0.1v16.6c-0.1,1.2,0.8,2.2,2,2.3c0.1,0,0.1,0,0.2,0
		c1.4,0,2.3-0.9,2.3-2.3V62.6c0.1-1.2-0.8-2.2-2-2.2C46,60.4,45.9,60.4,45.8,60.4 M78.7,60.5c-1.2,0-2.2,0.9-2.2,2.1v0.1v16.5
		c-0.1,1.2,0.8,2.2,2,2.3c0.1,0,0.1,0,0.2,0c1.4,0,2.3-0.9,2.3-2.3V62.7c0.1-1.2-0.8-2.2-2-2.2C78.9,60.4,78.8,60.4,78.7,60.5
		 M92.6,77.1c-1.5-0.1-2.4-0.5-2.4-2.2v-9.5h1.2c1.2,0,2.2-0.9,2.2-2.1v-0.1c0-1.4-0.9-2.3-2.2-2.3h-1.2v-6c0-1.4-0.9-2.3-2.3-2.3
		c-1.2,0-2.2,0.9-2.2,2.1c0,0.1,0,0.1,0,0.2v6c-1.1,0.2-1.7,1-1.7,2.2c0,1.1,0.7,2,1.7,2.2v9.6c0,4.2,2.2,6.5,6.2,6.5
		c1.6,0,2.6-0.8,2.6-2.1S93.8,77.2,92.6,77.1 M123.1,52.6c-1.2-0.1-2.2,0.9-2.2,2c0,0.1,0,0.1,0,0.2v24.4c-0.1,1.2,0.8,2.2,2,2.3
		c0.1,0,0.1,0,0.2,0c1.4,0,2.3-0.9,2.3-2.3V54.8C125.4,53.5,124.5,52.6,123.1,52.6 M136.2,74.9c-0.1-0.1-0.2-0.2-0.2-0.3
		c-0.2-0.2-0.4-0.5-0.7-0.7c-0.1-0.1-0.2-0.1-0.3-0.2c-0.5-0.3-1-0.5-1.6-0.6c-0.2,0-0.5-0.1-0.7-0.1c-0.7,0-1.4,0.2-2,0.5
		c-0.1,0.1-0.2,0.1-0.3,0.2c-1.9,1.3-2.4,3.9-1.1,5.9c0.3,0.5,0.7,0.8,1.1,1.1c0.1,0.1,0.2,0.1,0.3,0.2c1.5,0.8,3.4,0.6,4.7-0.5
		c0.2-0.2,0.4-0.4,0.6-0.6c0.1-0.1,0.2-0.2,0.2-0.3c0.1-0.2,0.3-0.5,0.4-0.7C137.1,77.6,137,76.1,136.2,74.9"/>
	<path class="st1" d="M109.9,70.1c0.1,0.3,0.1,0.6,0.1,0.9c0,0.2,0,0.4,0,0.5c0,0.2-0.1,0.3-0.1,0.5c-0.1,0.3-0.2,0.6-0.4,0.9
		c-1.1,2-3.6,2.7-5.6,1.7c-1.3-0.7-2.2-2.1-2.2-3.6c0-0.3,0-0.6,0.1-0.8c0.3-1.3,1.2-2.4,2.4-3c1-0.4,2.2-0.4,3.2,0
		c0.9,0.4,1.7,1.1,2.1,2C109.7,69.5,109.8,69.8,109.9,70.1 M29.4,66.9c-2.3,0-4.1,1.8-4.1,4.1c0,2.3,1.8,4.1,4.1,4.1
		s4.1-1.8,4.1-4.1l0,0C33.5,68.8,31.7,66.9,29.4,66.9L29.4,66.9 M147.3,67.3c-0.1,0-0.2-0.1-0.4-0.1c-0.2-0.1-0.4-0.1-0.6-0.1
		c-0.2,0-0.4-0.1-0.6,0c-0.4,0-0.8,0.1-1.2,0.2c-0.1,0-0.3,0.1-0.4,0.1c-1.2,0.5-2.2,1.6-2.4,3c-0.1,0.3-0.1,0.6-0.1,0.8
		c0,1.1,0.4,2.1,1.2,2.9c0.2,0.2,0.4,0.4,0.6,0.5c0.3,0.2,0.7,0.4,1.1,0.5c0.6,0.2,1.2,0.2,1.9,0.1c0.2,0,0.4-0.1,0.6-0.1
		c0.4-0.1,0.7-0.3,1.1-0.5c0.2-0.1,0.4-0.3,0.6-0.5c0.8-0.8,1.2-1.8,1.2-2.9c0-0.3,0-0.6-0.1-0.8C149.5,68.9,148.6,67.8,147.3,67.3
		 M63.5,67.3c-2.1-0.9-4.5,0.1-5.4,2.2c-0.1,0.3-0.2,0.5-0.2,0.8c-0.1,0.3-0.1,0.6-0.1,0.8c-0.1,2.3,1.7,4.2,4,4.2
		c2.3,0.1,4.2-1.7,4.2-4c0-0.1,0-0.2,0-0.3c0-0.3,0-0.6-0.1-0.8C65.6,68.9,64.7,67.8,63.5,67.3"/>
</g>
</svg>
